HIERARCHY
ROOT Hips
{
  OFFSET 0 0 0
  CHANNELS 6 Xposition Yposition Zposition Zrotation Yrotation Xrotation
  JOINT LeftThigh
  {
    OFFSET 8.409438 0 -5.917753
    CHANNELS 3 Zrotation Yrotation Xrotation
    JOINT LeftLeg
    {
      OFFSET 0 0 -42.358652
      CHANNELS 3 Zrotation Yrotation Xrotation
      JOINT LeftFoot
      {
        OFFSET 0 0 -39.357303
        CHANNELS 3 Zrotation Yrotation Xrotation
      }
    }
  }
  JOINT RightThigh
  {
    OFFSET -8.409438 0 -5.917753
    CHANNELS 3 Zrotation Yrotation Xrotation
    JOINT RightLeg
    {
      OFFSET 0 0 -42.358652
      CHANNELS 3 Zrotation Yrotation Xrotation
      JOINT RightFoot
      {
        OFFSET 0 0 -39.357303
        CHANNELS 3 Zrotation Yrotation Xrotation
      }
    }
  }
  JOINT SpineLow
  {
    OFFSET 0 0 4.719101
    CHANNELS 3 Zrotation Yrotation Xrotation
    JOINT SpineMid
    {
      OFFSET 0 0 12.899191
      CHANNELS 3 Zrotation Yrotation Xrotation
      JOINT Chest
      {
        OFFSET 0 0 12.899191
        CHANNELS 3 Zrotation Yrotation Xrotation
        JOINT LeftShoulder
        {
          OFFSET 7.550562 1.41573 9.438202
          CHANNELS 3 Zrotation Yrotation Xrotation
          JOINT LeftArm
          {
            OFFSET 9.155056 0 4.247191
            CHANNELS 3 Zrotation Yrotation Xrotation
            JOINT LeftForearm
            {
              OFFSET 0 0 25.771955
              CHANNELS 3 Zrotation Yrotation Xrotation
              JOINT LeftHand
              {
                OFFSET 0 0 25.197169
                CHANNELS 3 Zrotation Yrotation Xrotation
              }
            }
          }
        }
        JOINT RightShoulder
        {
          OFFSET -7.550562 1.41573 9.438202
          CHANNELS 3 Zrotation Yrotation Xrotation
          JOINT RightArm
          {
            OFFSET -9.155056 0 4.247191
            CHANNELS 3 Zrotation Yrotation Xrotation
            JOINT RightForearm
            {
              OFFSET 0 0 -25.771955
              CHANNELS 3 Zrotation Yrotation Xrotation
              JOINT RightHand
              {
                OFFSET 0 0 -25.197169
                CHANNELS 3 Zrotation Yrotation Xrotation
              }
            }
          }
        }
        JOINT Neck
        {
          OFFSET 0 0 15.101124
          CHANNELS 3 Zrotation Yrotation Xrotation
          JOINT Head
          {
            OFFSET 0 0 11.325843
            CHANNELS 3 Zrotation Yrotation Xrotation
            End Site
            {
              OFFSET 0 0 14.157303
            }
          }
        }
      }
    }
  }
}
MOTION
Frames: 10
Frame Time: 0.0
0.0  93.25843  0.0  -10.046684  -31.190371  -83.621931  23.794393  -21.357472  -4.205672  3.348333  -0.221629  14.080984  13.654951  2.667716  5.757436  1.607765  -8.830736  -14.503031  -1.722939  10.633949  10.571488  6.83956  2.412774  0.924574  -0.664312  -1.976853  -0.172745  -1.805388  -5.407784  -0.418599  -1.805388  -5.407784  -0.418599  -10.790446  -12.807029  8.693998  -23.516098  53.209092  11.849481  -11.698914  -48.079171  92.295855  115.598332  33.621261  17.505732  -12.964655  -4.77443  23.873796  67.444644  21.559557  55.963405  -26.169829  15.184149  -109.278112  69.55483  -9.226073  -8.466327  12.731207  1.266313  4.831979  9.538721  1.051033  3.599304  
0.0  93.25843  0.0  -10.252693  -26.380308  -83.119624  24.426993  -21.910242  -6.319695  0.106307  0.264058  12.967884  13.871139  2.381103  5.929402  0.470409  -8.435587  -14.491891  -3.653371  10.14428  9.921563  6.444261  2.516657  0.989536  -1.144742  -2.159222  -0.273152  -3.112209  -5.913374  -0.645609  -3.112209  -5.913374  -0.645609  -8.620726  -14.84157  9.734405  -20.171839  50.696999  17.653793  -3.052023  -50.006344  81.478863  115.318543  33.117193  20.232799  -14.953505  -3.504343  22.512287  62.877772  19.545988  54.537193  -26.423036  15.883121  -110.073069  70.983898  -8.660761  -7.200723  12.316808  1.276235  4.976547  9.227566  1.058084  3.708316  
0.0  93.25843  0.0  -10.742514  -22.151723  -82.192803  25.652357  -22.25983  -8.838643  -2.346667  0.330507  12.118956  13.554846  2.129758  5.926652  0.221778  -8.186694  -15.089642  -5.888543  9.707993  9.516955  6.122565  2.640324  1.036779  -1.538503  -2.419107  -0.567814  -4.161057  -6.645132  -1.401402  -4.161057  -6.645132  -1.401402  -8.599467  -16.497732  10.737626  -15.201549  48.481509  23.131093  5.772672  -49.43681  71.328018  115.196389  31.757776  24.104098  -16.476411  -2.261438  21.92231  57.864006  17.979856  53.712854  -27.023001  17.090042  -111.611007  70.601263  -8.654479  -6.534566  11.379869  1.348584  5.302047  8.523576  1.110737  3.952862  
0.0  93.25843  0.0  -10.087124  -18.36472  -82.375928  26.284504  -21.572769  -9.954599  -3.916676  -0.086263  11.48482  11.500654  2.298339  5.014236  0.355222  -6.900663  -15.178893  -8.218322  9.489931  9.304565  5.884387  2.774849  1.06298  -2.147712  -2.501799  -0.708337  -5.815942  -6.894649  -1.717416  -5.815942  -6.894648  -1.717416  -6.902578  -17.936464  11.645912  -11.278419  46.246524  27.198899  12.617008  -47.837491  63.104702  112.737123  30.099429  26.939104  -16.013776  -1.8817  21.040645  53.897243  16.04818  53.566211  -27.428754  17.687632  -112.68527  68.275964  -9.291881  -6.149565  11.749336  1.537314  5.657767  8.798144  1.262455  4.215357  
0.0  93.25843  0.0  -9.433629  -14.3725  -83.513724  25.412927  -21.11466  -9.734896  -4.895914  -0.710202  10.88978  10.078545  2.135103  4.613394  -0.096864  -5.806591  -14.2178  -10.20175  9.48607  9.085819  5.803195  2.785412  1.036101  -2.871003  -2.684494  -0.70788  -7.798133  -7.409485  -1.61852  -7.798134  -7.409485  -1.61852  -5.224122  -17.923914  12.298794  -9.319756  45.710623  28.987585  17.027243  -46.958438  58.666274  108.294977  29.949379  27.060523  -15.950384  -0.853121  20.976501  52.588222  14.395801  52.823075  -27.144716  16.971626  -112.728877  65.900089  -9.84103  -4.878231  12.234688  2.471975  6.041789  9.151221  1.976105  4.483255  
0.0  93.25843  0.0  -8.840246  -10.441493  -83.649359  23.802623  -20.257682  -9.990122  -5.787018  -1.276932  10.254248  9.300018  1.899001  4.305214  -0.748792  -4.892586  -14.162461  -11.526682  9.608269  8.897926  5.497051  2.576928  1.003554  -3.4848  -2.918607  -0.94073  -9.453325  -8.093316  -2.153428  -9.453325  -8.093315  -2.153428  -4.004146  -17.033916  13.548061  -9.810425  46.677597  28.961898  18.28053  -47.268128  56.64429  104.782671  30.648999  23.851899  -16.47437  0.352274  21.295514  53.164199  12.783762  51.975293  -26.249261  15.339374  -111.423687  65.278292  -9.618403  -3.289041  12.63996  3.645746  6.846135  9.437315  2.877759  5.059941  
0.0  93.25843  0.0  -8.847044  -8.358167  -83.368413  22.917186  -19.783317  -10.170487  -6.455651  -1.74918  9.465194  9.334418  1.731038  4.231698  -0.057289  -4.636474  -14.15814  -12.475311  9.725692  8.402471  4.965993  2.432514  1.109325  -3.597728  -3.065427  -1.148604  -9.7351  -8.527097  -2.687858  -9.735101  -8.527097  -2.687859  -3.058146  -16.179064  14.741543  -15.640163  46.505636  24.86754  14.828478  -48.056089  60.375596  105.77782  30.624766  22.239919  -17.549841  0.262593  21.610481  53.946039  11.958297  51.233733  -25.615445  14.260939  -109.70991  66.591941  -9.325054  -2.275189  12.313681  4.316209  7.470942  9.179698  3.38985  5.516103  
0.0  93.25843  0.0  -8.479801  -6.501518  -83.525667  20.71948  -19.450141  -9.547502  -6.329158  -1.936531  8.78441  9.532662  1.574105  4.280759  -0.226838  -4.23521  -13.806325  -12.78722  9.781569  8.08404  4.098847  2.358082  1.190964  -3.56536  -3.013448  -1.23896  -9.635407  -8.397254  -2.947085  -9.635407  -8.397254  -2.947085  -3.020562  -15.716748  15.111261  -22.871693  46.04425  19.779947  10.535159  -49.669405  66.665313  108.51482  30.685116  23.758896  -18.942529  -0.93603  21.828238  54.662677  12.741698  50.879945  -25.186169  14.047559  -108.239473  67.92356  -9.526532  -2.03808  11.493371  4.405844  7.799882  8.561131  3.453111  5.76645  
0.0  93.25843  0.0  -7.677745  -4.80853  -83.640658  17.857793  -18.915002  -8.943465  -5.437669  -1.89768  8.589891  9.88994  1.543914  4.439395  -1.639168  -3.371791  -13.823304  -12.683638  9.655328  8.181195  3.333713  2.329879  1.20543  -3.646567  -2.856654  -1.32056  -9.851721  -7.985068  -3.182594  -9.851721  -7.985068  -3.182594  -3.323133  -15.318653  14.982358  -28.790708  45.74303  15.57353  8.645776  -51.545814  70.844902  108.671426  31.141201  25.381706  -18.987737  -2.319066  21.772389  55.604377  14.176436  51.042498  -23.90967  13.446302  -106.92602  68.151519  -10.102028  -1.895157  11.017256  3.980501  8.121034  8.208393  3.133585  6.018794  
0.0  93.25843  0.0  -7.10895  -3.453902  -83.345738  15.443548  -18.504732  -9.061175  -4.387484  -1.824964  8.755404  10.083511  1.625917  4.605928  -3.814329  -2.898687  -14.154995  -12.390934  9.535818  8.213056  4.645865  2.027869  1.576183  -3.683532  -2.682586  -1.456087  -9.941963  -7.532354  -3.574247  -9.941964  -7.532354  -3.574246  -4.068999  -14.880364  14.844006  -33.323178  45.326455  12.527874  6.439705  -54.861786  74.387215  106.032253  31.057057  26.581477  -18.464395  -3.487222  21.654982  57.06832  15.061537  51.609397  -22.62063  11.961422  -105.91712  67.334592  -10.677684  -1.810414  10.453322  3.090145  8.506783  7.796853  2.464516  6.327847  
